<?xml version="1.0" encoding="utf-8"?>
<svg width="81" height="15" viewBox="0 0 81 15" xmlns:xlink="http://www.w3.org/1999/xlink" xmlns="http://www.w3.org/2000/svg" fill="#5b9de8">
    <path d="M 3.405 12.418 L 8.573 12.418 C 9.088 12.418 9.48 12.523 9.751 12.734 C 10.021 12.945 10.158 13.232 10.158 13.595 C 10.158 13.919 10.049 14.192 9.836 14.417 C 9.62 14.641 9.295 14.752 8.86 14.752 L 1.574 14.752 C 1.079 14.752 0.692 14.616 0.416 14.342 C 0.138 14.068 0 13.746 0 13.377 C 0 13.14 0.089 12.824 0.267 12.432 C 0.446 12.04 0.64 11.731 0.85 11.507 C 1.729 10.597 2.522 9.816 3.227 9.167 C 3.933 8.518 4.437 8.09 4.742 7.887 C 5.284 7.503 5.733 7.12 6.094 6.734 C 6.453 6.347 6.726 5.952 6.915 5.546 C 7.102 5.141 7.197 4.742 7.197 4.354 C 7.197 3.932 7.095 3.555 6.896 3.221 C 6.693 2.887 6.42 2.629 6.074 2.444 C 5.727 2.26 5.349 2.168 4.94 2.168 C 4.075 2.168 3.395 2.547 2.9 3.305 C 2.834 3.404 2.723 3.674 2.568 4.116 C 2.414 4.558 2.238 4.899 2.045 5.135 C 1.849 5.373 1.564 5.491 1.188 5.491 C 0.857 5.491 0.583 5.383 0.366 5.165 C 0.148 4.948 0.041 4.651 0.041 4.274 C 0.041 3.82 0.141 3.345 0.347 2.85 C 0.551 2.355 0.855 1.907 1.262 1.504 C 1.667 1.101 2.183 0.778 2.805 0.53 C 3.43 0.283 4.162 0.159 4.999 0.159 C 6.008 0.159 6.87 0.317 7.582 0.633 C 8.045 0.844 8.451 1.135 8.801 1.504 C 9.15 1.874 9.423 2.3 9.617 2.786 C 9.812 3.271 9.91 3.774 9.91 4.294 C 9.91 5.113 9.706 5.856 9.301 6.526 C 8.895 7.196 8.481 7.72 8.058 8.099 C 7.636 8.478 6.928 9.074 5.935 9.885 C 4.941 10.696 4.259 11.326 3.89 11.775 C 3.733 11.953 3.571 12.167 3.405 12.418 L 3.405 12.418 Z M 13.489 0.248 L 17.32 0.248 C 18.317 0.248 19.172 0.341 19.885 0.525 C 20.598 0.709 21.244 1.055 21.825 1.563 C 23.337 2.858 24.092 4.822 24.092 7.461 C 24.092 8.331 24.017 9.125 23.864 9.844 C 23.712 10.564 23.478 11.211 23.162 11.789 C 22.844 12.366 22.439 12.883 21.943 13.337 C 21.555 13.687 21.129 13.967 20.667 14.179 C 20.205 14.39 19.709 14.538 19.177 14.624 C 18.646 14.71 18.047 14.752 17.38 14.752 L 13.55 14.752 C 13.015 14.752 12.611 14.671 12.342 14.51 C 12.07 14.349 11.894 14.121 11.811 13.828 C 11.729 13.533 11.688 13.153 11.688 12.685 L 11.688 2.049 C 11.688 1.415 11.829 0.957 12.113 0.673 C 12.397 0.389 12.856 0.248 13.489 0.248 L 13.489 0.248 Z M 14.628 2.574 L 14.628 12.418 L 16.856 12.418 C 17.344 12.418 17.727 12.404 18.004 12.377 C 18.281 12.351 18.568 12.286 18.865 12.18 C 19.162 12.075 19.419 11.926 19.637 11.734 C 20.62 10.904 21.111 9.472 21.111 7.441 C 21.111 6.01 20.896 4.938 20.463 4.226 C 20.032 3.513 19.498 3.06 18.865 2.865 C 18.232 2.67 17.465 2.574 16.568 2.574 L 14.628 2.574 Z M 32.216 0 C 33.721 0 35.013 0.306 36.092 0.916 C 37.17 1.526 37.987 2.394 38.542 3.519 C 39.096 4.642 39.374 5.964 39.374 7.481 C 39.374 8.602 39.222 9.62 38.918 10.537 C 38.614 11.455 38.159 12.25 37.551 12.922 C 36.945 13.595 36.198 14.11 35.314 14.465 C 34.43 14.822 33.417 15 32.275 15 C 31.14 15 30.124 14.817 29.227 14.45 C 28.329 14.085 27.581 13.569 26.98 12.902 C 26.379 12.236 25.925 11.434 25.618 10.499 C 25.313 9.561 25.157 8.549 25.157 7.461 C 25.157 6.346 25.318 5.324 25.638 4.394 C 25.958 3.464 26.421 2.671 27.028 2.019 C 27.636 1.366 28.375 0.866 29.245 0.521 C 30.118 0.174 31.108 0 32.216 0 L 32.216 0 Z M 36.394 7.461 C 36.394 6.399 36.222 5.478 35.879 4.7 C 35.536 3.921 35.045 3.333 34.409 2.934 C 33.773 2.535 33.041 2.336 32.216 2.336 C 31.629 2.336 31.085 2.446 30.586 2.667 C 30.089 2.887 29.66 3.209 29.3 3.631 C 28.941 4.053 28.656 4.593 28.45 5.249 C 28.242 5.906 28.138 6.643 28.138 7.461 C 28.138 8.285 28.242 9.031 28.45 9.696 C 28.656 10.363 28.952 10.916 29.33 11.354 C 29.709 11.793 30.145 12.12 30.638 12.339 C 31.129 12.556 31.668 12.664 32.257 12.664 C 33.007 12.664 33.699 12.477 34.329 12.102 C 34.959 11.725 35.462 11.145 35.834 10.36 C 36.207 9.575 36.394 8.609 36.394 7.461 L 36.394 7.461 Z M 43.983 12.418 L 49.151 12.418 C 49.665 12.418 50.058 12.523 50.329 12.734 C 50.6 12.945 50.734 13.232 50.734 13.595 C 50.734 13.919 50.627 14.192 50.414 14.417 C 50.198 14.641 49.873 14.752 49.438 14.752 L 42.152 14.752 C 41.657 14.752 41.27 14.616 40.993 14.342 C 40.717 14.068 40.578 13.746 40.578 13.377 C 40.578 13.14 40.666 12.824 40.845 12.432 C 41.023 12.04 41.218 11.731 41.43 11.507 C 42.307 10.597 43.099 9.816 43.805 9.167 C 44.511 8.518 45.015 8.09 45.319 7.887 C 45.861 7.503 46.311 7.12 46.671 6.734 C 47.03 6.347 47.305 5.952 47.492 5.546 C 47.679 5.141 47.774 4.742 47.774 4.354 C 47.774 3.932 47.673 3.555 47.474 3.221 C 47.271 2.887 46.998 2.629 46.651 2.444 C 46.305 2.26 45.927 2.168 45.518 2.168 C 44.653 2.168 43.973 2.547 43.478 3.305 C 43.412 3.404 43.302 3.674 43.146 4.116 C 42.991 4.558 42.816 4.899 42.622 5.135 C 42.426 5.373 42.143 5.491 41.765 5.491 C 41.435 5.491 41.162 5.383 40.944 5.165 C 40.725 4.948 40.618 4.651 40.618 4.274 C 40.618 3.82 40.72 3.345 40.925 2.85 C 41.128 2.355 41.434 1.907 41.84 1.504 C 42.245 1.101 42.76 0.778 43.384 0.53 C 44.008 0.283 44.738 0.159 45.577 0.159 C 46.587 0.159 47.447 0.317 48.16 0.633 C 48.623 0.844 49.029 1.135 49.377 1.504 C 49.727 1.874 50 2.3 50.195 2.786 C 50.39 3.271 50.487 3.774 50.487 4.294 C 50.487 5.113 50.283 5.856 49.878 6.526 C 49.472 7.196 49.058 7.72 48.637 8.099 C 48.214 8.478 47.505 9.074 46.513 9.885 C 45.52 10.696 44.837 11.326 44.468 11.775 C 44.309 11.953 44.148 12.167 43.983 12.418 L 43.983 12.418 Z M 65.501 8.856 L 65.501 11.637 C 65.501 12.005 65.466 12.301 65.392 12.522 C 65.32 12.742 65.186 12.942 64.992 13.12 C 64.797 13.297 64.547 13.47 64.244 13.635 C 63.366 14.11 62.522 14.456 61.71 14.673 C 60.898 14.891 60.013 15 59.058 15 C 57.941 15 56.924 14.829 56.008 14.486 C 55.09 14.143 54.309 13.645 53.661 12.992 C 53.014 12.339 52.519 11.547 52.172 10.617 C 51.825 9.687 51.652 8.649 51.652 7.5 C 51.652 6.372 51.82 5.34 52.156 4.404 C 52.493 3.467 52.989 2.671 53.642 2.019 C 54.295 1.366 55.09 0.866 56.028 0.521 C 56.965 0.174 58.028 0 59.215 0 C 60.192 0 61.056 0.131 61.81 0.391 C 62.562 0.651 63.171 0.98 63.64 1.376 C 64.109 1.771 64.462 2.191 64.699 2.632 C 64.936 3.075 65.056 3.467 65.056 3.809 C 65.056 4.18 64.919 4.495 64.646 4.754 C 64.371 5.015 64.043 5.146 63.659 5.146 C 63.449 5.146 63.245 5.096 63.052 4.997 C 62.856 4.899 62.693 4.759 62.562 4.581 C 62.198 4.015 61.892 3.585 61.641 3.296 C 61.389 3.005 61.051 2.761 60.626 2.563 C 60.201 2.366 59.656 2.266 58.998 2.266 C 58.318 2.266 57.711 2.384 57.176 2.618 C 56.642 2.852 56.184 3.191 55.805 3.636 C 55.425 4.081 55.135 4.627 54.934 5.274 C 54.732 5.92 54.632 6.635 54.632 7.421 C 54.632 9.122 55.023 10.432 55.805 11.35 C 56.586 12.266 57.677 12.724 59.076 12.724 C 59.756 12.724 60.394 12.635 60.992 12.457 C 61.59 12.28 62.194 12.026 62.809 11.695 L 62.809 9.341 L 60.532 9.341 C 59.984 9.341 59.57 9.258 59.29 9.093 C 59.008 8.928 58.868 8.649 58.868 8.252 C 58.868 7.93 58.986 7.662 59.221 7.451 C 59.454 7.24 59.773 7.134 60.175 7.134 L 63.511 7.134 C 63.921 7.134 64.268 7.17 64.55 7.244 C 64.835 7.315 65.064 7.477 65.239 7.728 C 65.413 7.978 65.501 8.355 65.501 8.856 L 65.501 8.856 Z M 73.842 0 C 75.349 0 76.64 0.306 77.719 0.916 C 78.798 1.526 79.615 2.394 80.168 3.519 C 80.723 4.642 81 5.964 81 7.481 C 81 8.602 80.849 9.62 80.546 10.537 C 80.241 11.455 79.786 12.25 79.177 12.922 C 78.571 13.595 77.826 14.11 76.942 14.465 C 76.058 14.822 75.044 15 73.903 15 C 72.768 15 71.751 14.817 70.853 14.45 C 69.956 14.085 69.207 13.569 68.606 12.902 C 68.005 12.236 67.552 11.434 67.245 10.499 C 66.939 9.561 66.785 8.549 66.785 7.461 C 66.785 6.346 66.945 5.324 67.265 4.394 C 67.586 3.464 68.049 2.671 68.655 2.019 C 69.263 1.366 70.003 0.866 70.874 0.521 C 71.744 0.174 72.735 0 73.842 0 L 73.842 0 Z M 78.021 7.461 C 78.021 6.399 77.849 5.478 77.505 4.7 C 77.162 3.921 76.673 3.333 76.036 2.934 C 75.399 2.535 74.668 2.336 73.842 2.336 C 73.256 2.336 72.713 2.446 72.215 2.667 C 71.717 2.887 71.288 3.209 70.928 3.631 C 70.569 4.053 70.284 4.593 70.077 5.249 C 69.868 5.906 69.765 6.643 69.765 7.461 C 69.765 8.285 69.868 9.031 70.077 9.696 C 70.284 10.363 70.578 10.916 70.957 11.354 C 71.337 11.793 71.773 12.12 72.264 12.339 C 72.757 12.556 73.295 12.664 73.883 12.664 C 74.636 12.664 75.327 12.477 75.957 12.102 C 76.587 11.725 77.088 11.145 77.462 10.36 C 77.834 9.575 78.021 8.609 78.021 7.461 L 78.021 7.461 Z" />
</svg>
