<?xml version="1.0" encoding="UTF-8"?>
<svg xmlns="http://www.w3.org/2000/svg" xmlns:xlink="http://www.w3.org/1999/xlink" width="158px" height="37px" viewBox="0 0 158 37"> <!-- Generator: Sketch 49 (51002) - http://www.bohemiancoding.com/sketch --> <title>mid</title> <desc>Created with Sketch.</desc> <defs> <polygon id="path-1" points="9.54673024 14.8700401 9.54673024 0.49683531 0.0162470874 0.49683531 0.0162470874 14.8700401 9.54673024 14.8700401"/> </defs> <g id="Page-1" stroke="none" stroke-width="1" fill="none" fill-rule="evenodd"> <g id="mid" transform="translate(0.000000, -1.000000)"> <g id="name" transform="translate(49.000000, 0.000000)"> <path d="M0.0340753847,15.5326509 L2.15164438,15.5326509 L2.15164438,4.52238647 L0.0340753847,4.52238647 L0.0340753847,15.5326509 Z M2.19870147,9.75338379 L2.19870147,9.50496613 L6.31017782,4.52238647 L9.01979066,4.52238647 L4.51872539,9.6461374 L9.28462357,15.5315566 L6.55859547,15.5315566 L2.19870147,9.75338379 Z" id="Fill-1" fill="#37475D"/> <path d="M12.6024766,13.9579894 C13.6924501,13.6023254 14.284494,13.3659456 14.72114,12.4324642 L14.9225006,12.0275544 L14.222116,12.0275544 L10.3448307,4.52140155 L12.7130061,4.52140155 L15.6239795,10.4538778 L17.8039265,4.52140155 L20.2016493,4.52140155 L16.6833112,12.3711806 C15.4992235,14.9855849 14.6894038,15.2055494 13.2109357,15.6717429 L12.6024766,13.9579894 Z" id="Fill-2" fill="#37475D"/> <path d="M19.7231991,14.021024 C20.5330188,13.6795865 21.5299724,13.1488263 21.9031461,12.3860638 C22.4021701,11.3891101 22.6976449,8.6182136 22.854137,4.52205816 L29.5493759,4.52205816 L29.5493759,15.5312283 L27.416486,15.5312283 L27.416486,6.09354606 L24.659816,6.09354606 C24.3030576,10.2214377 24.1629807,12.340101 23.4450865,13.6620769 C22.854137,14.7531448 21.7630692,15.3911513 20.6260386,15.8737601 L19.7231991,14.021024 Z" id="Fill-4" fill="#37475D"/> <path d="M32.4867231,4.52238647 L34.6360283,4.52238647 L34.6360283,13.8484449 L35.9437776,13.8484449 C37.6115684,13.8484449 38.3108586,13.0101721 38.3108586,11.840311 C38.3108586,10.5642978 37.4857181,9.94051779 35.8037007,9.94051779 L34.7137272,9.94051779 L34.7137272,8.27491572 L35.7424171,8.27491572 C38.8252036,8.27491572 40.5072209,9.53670231 40.5072209,11.8731415 C40.5072209,14.0673151 38.9029025,15.5326509 35.9908347,15.5326509 L32.4867231,15.5326509 L32.4867231,4.52238647 Z" id="Fill-6" fill="#37475D"/> <polygon id="Fill-9" fill="#37475D" points="43.6845593 6.21950585 40.1180697 6.21950585 40.1180697 4.5221676 49.3839388 4.5221676 49.3839388 6.21950585 45.8185436 6.21950585 45.8185436 15.5313377 43.6845593 15.5313377"/> <path d="M52.8358499,13.9579894 C53.9258234,13.6023254 54.5178672,13.3659456 54.9534189,12.4324642 L55.1558738,12.0275544 L54.4543949,12.0275544 L50.578204,4.52140155 L52.945285,4.52140155 L55.8573527,10.4538778 L58.0372997,4.52140155 L60.4361169,4.52140155 L56.9155901,12.3711806 C55.7315024,14.9855849 54.9227771,15.2055494 53.4432146,15.6717429 L52.8358499,13.9579894 Z" id="Fill-10" fill="#37475D"/> <path d="M62.2832718,4.52238647 L66.300634,4.52238647 C68.667715,4.52238647 70.2873543,5.87500419 70.2873543,8.25959481 C70.2873543,10.346522 68.667715,12.0909173 65.493003,12.0909173 L64.7433726,12.0909173 L64.7433726,10.4253152 L65.5860228,10.4253152 C67.2669458,10.4253152 68.0931807,9.61330687 68.0931807,8.32197281 C68.0931807,6.99890256 67.5011369,6.20221511 65.9581021,6.20221511 L64.4161617,6.20221511 L64.4161617,15.5326509 L62.2832718,15.5326509 L62.2832718,4.52238647 Z" id="Fill-12" fill="#37475D"/> <polygon id="Fill-15" fill="#37475D" points="72.2670351 4.52238647 74.3867928 4.52238647 74.3867928 9.17884957 79.5860539 9.17884957 79.5860539 4.52238647 81.7036229 4.52238647 81.7036229 15.5326509 79.5860539 15.5326509 79.5860539 10.8291307 74.3867928 10.8291307 74.3867928 15.5326509 72.2670351 15.5326509"/> <path d="M84.6415174,4.52238647 L86.7908226,4.52238647 L86.7908226,13.8484449 L88.0974775,13.8484449 C89.7652683,13.8484449 90.4645585,13.0714557 90.4645585,11.902689 C90.4645585,10.6255815 89.639418,9.94051779 87.9574006,9.94051779 L86.8685215,9.94051779 L86.8685215,8.27491572 L87.896117,8.27491572 C90.9789035,8.27491572 92.6620151,9.59798596 92.6620151,11.9191042 C92.6620151,14.1154665 91.0566024,15.5326509 88.145629,15.5326509 L84.6415174,15.5326509 L84.6415174,4.52238647 Z M93.9544436,15.5326509 L96.0873335,15.5326509 L96.0873335,4.52238647 L93.9544436,4.52238647 L93.9544436,15.5326509 Z" id="Fill-16" fill="#37475D"/> <g id="Group-20" transform="translate(99.022879, 0.662611)"> <mask id="mask-2" fill="white"> <use xlink:href="#path-1"/> </mask> <g id="Clip-19"/> <path d="M0.0162470874,3.85977564 L2.13381609,3.85977564 L2.13381609,10.400711 L2.086759,11.9415571 L3.08371267,10.3372386 L7.42719141,3.85977564 L9.54694911,3.85977564 L9.54694911,14.8700401 L7.42719141,14.8700401 L7.42719141,8.32910473 L7.47534285,6.78716431 L6.60314518,8.17261255 L2.13381609,14.8700401 L0.0162470874,14.8700401 L0.0162470874,3.85977564 Z M1.63479207,1.55397828 L2.64816101,0.49683531 C3.34854559,1.22676736 4.11130817,1.49269463 4.82701366,1.49269463 C5.56022877,1.49269463 6.33831226,1.22676736 7.02337592,0.49683531 L8.05097142,1.55397828 C7.35058684,2.64504613 6.13585734,3.23708997 4.82701366,3.23708997 C3.53567959,3.23708997 2.31985574,2.64504613 1.63479207,1.55397828 Z" id="Fill-18" fill="#37475D" mask="url(#mask-2)"/> </g> <path d="M0.034513125,24.0219686 L4.05187529,24.0219686 C6.4189563,24.0219686 8.03750128,25.3745863 8.03750128,27.759177 C8.03750128,29.8450098 6.4189563,31.5904995 3.24314997,31.5904995 L2.49461396,31.5904995 L2.49461396,29.923803 L3.3361698,29.923803 C5.01818714,29.923803 5.84332772,29.112889 5.84332772,27.821555 C5.84332772,26.4973904 5.25128388,25.7028916 3.70824911,25.7028916 L2.16630869,25.7028916 L2.16630869,35.0322331 L0.034513125,35.0322331 L0.034513125,24.0219686 Z" id="Fill-21" fill="#37475D"/> <polygon id="Fill-24" fill="#37475D" points="10.0183859 24.0219686 16.8383807 24.0219686 16.8383807 25.7028916 12.1359549 25.7028916 12.1359549 28.7079792 16.4969432 28.7079792 16.4969432 30.2969767 12.1359549 30.2969767 12.1359549 33.348027 17.1973278 33.348027 17.1973278 35.0322331 10.0183859 35.0322331"/> <polygon id="Fill-25" fill="#37475D" points="19.4314452 24.0219686 26.6574442 24.0219686 26.6574442 25.7028916 21.5490142 25.7028916 21.5490142 35.0322331 19.4314452 35.0322331"/> <polygon id="Fill-26" fill="#37475D" points="28.7612244 24.0219686 30.8798877 24.0219686 30.8798877 30.562904 30.833925 32.10375 31.8297843 30.4994316 36.173263 24.0219686 38.2919264 24.0219686 38.2919264 35.0322331 36.173263 35.0322331 36.173263 28.4912977 36.2203201 26.9493573 35.3492168 28.3348055 30.8798877 35.0322331 28.7612244 35.0322331"/> <path d="M40.6281467,29.5022591 C40.6281467,25.8591649 42.9328497,23.8488423 46.545302,23.8488423 C50.3766245,23.8488423 52.1374351,26.1699606 52.1374351,29.5339952 C52.1374351,33.1004848 50.0176774,35.2191482 46.2498273,35.2191482 C42.5585817,35.2191482 40.6281467,32.9746345 40.6281467,29.5022591 M49.9717147,29.5197687 C49.9717147,27.2446132 48.8193632,25.5483693 46.4052251,25.5483693 C43.8838406,25.5483693 42.7774519,27.2446132 42.7774519,29.4869382 C42.7774519,31.6822061 43.8510101,33.5196212 46.2968844,33.5196212 C48.912383,33.5196212 49.9717147,31.7763202 49.9717147,29.5197687" id="Fill-27" fill="#37475D"/> <polygon id="Fill-29" fill="#37475D" points="54.4795649 24.0219686 56.5971339 24.0219686 56.5971339 28.6784317 61.7974894 28.6784317 61.7974894 24.0219686 63.9161528 24.0219686 63.9161528 35.0322331 61.7974894 35.0322331 61.7974894 30.3287129 56.5971339 30.3287129 56.5971339 35.0322331 54.4795649 35.0322331"/> </g> <g id="logo" transform="translate(0.000000, 1.000000)"> <polygon id="Fill-30" fill="#F05A3E" points="0.417755353 9.27024572 1.35999148 17.2754226 7.81556746 6.15244"/> <polygon id="Fill-31" fill="#F05A3E" points="32.0025828 9.49962167 31.0603467 17.5047985 24.6058651 6.38181595"/> <polygon id="Fill-32" fill="#F05A3E" points="10.0827342 5.25277412 22.9413574 5.25277412 16.4923475 0.419026177"/> <polygon id="Fill-33" fill="#F05A3E" points="32.041104 27.7135604 31.0988679 19.7094779 24.6432919 30.8335548"/> <polygon id="Fill-34" fill="#F05A3E" points="0.34093192 27.7137792 7.73874403 30.831585 1.28316805 19.7096967"/> <polygon id="Fill-35" fill="#F05A3E" points="9.70748131 32.0375597 16.1575855 36.8702133 22.5671988 32.0364653"/> <polygon id="Fill-36" fill="#FEFEFE" points="19.0178905 13.6451323 13.3294545 13.6451323 10.4852365 18.5708057 13.3294545 23.4975735 19.0178905 23.4975735 21.8621085 18.5708057"/> <polygon id="Fill-37" fill="#D71972" points="13.8603241 9.01548083 9.01891572 6.1274888 9.01891572 11.7196219"/> <polygon id="Fill-38" fill="#D71972" points="18.5102211 8.97706911 23.3516295 6.08907708 23.3516295 11.6812102"/> <polygon id="Fill-39" fill="#D71972" points="18.5102211 28.0822472 23.3516295 30.9713336 23.3516295 25.3781061"/> <polygon id="Fill-40" fill="#D71972" points="13.8603241 28.1206589 9.01891572 31.0086509 9.01891572 25.4165178"/> <polygon id="Fill-41" fill="#D71972" points="6.69363892 21.3632609 1.80955083 18.5485904 6.68926151 15.8181849"/> <polygon id="Fill-42" fill="#D71972" points="25.6780007 15.8113999 30.5620887 18.6260705 25.6823781 21.356476"/> <polygon id="Fill-43" fill="#4D499D" points="10.4137754 15.2610509 16.182099 11.9309411 21.9504226 15.2610509 21.9504226 21.9223648 16.182099 25.2524746 10.4137754 21.9223648"/> <polygon id="Fill-44" fill="#FEFEFE" points="13.877396 22.5773338 11.5694099 18.5807643 13.877396 14.5831005 18.4933681 14.5831005 20.8013542 18.5807643 18.4933681 22.5773338"/> </g> </g> </g> </svg>