<?xml version="1.0" encoding="UTF-8" standalone="no"?>
<svg
   xmlns:dc="http://purl.org/dc/elements/1.1/"
   xmlns:cc="http://creativecommons.org/ns#"
   xmlns:rdf="http://www.w3.org/1999/02/22-rdf-syntax-ns#"
   xmlns:svg="http://www.w3.org/2000/svg"
   xmlns="http://www.w3.org/2000/svg"
   id="svg8"
   version="1.1"
   viewBox="0 0 37.820202 9.6731663"
   height="9.6731663mm"
   width="37.820202mm">
  <defs
     id="defs2" />
  <metadata
     id="metadata5">
    <rdf:RDF>
      <cc:Work
         rdf:about="">
        <dc:format>image/svg+xml</dc:format>
        <dc:type
           rdf:resource="http://purl.org/dc/dcmitype/StillImage" />
        <dc:title></dc:title>
      </cc:Work>
    </rdf:RDF>
  </metadata>
  <g
     style="display:inline"
     transform="translate(-53.588044,-80.056492)"
     id="layer1">
    <g
       id="text12"
       style="font-style:normal;font-variant:normal;font-weight:normal;font-stretch:normal;font-size:10.58333302px;line-height:1.25;font-family:Arcon;-inkscape-font-specification:'Arcon, Normal';font-variant-ligatures:normal;font-variant-caps:normal;font-variant-numeric:normal;font-feature-settings:normal;text-align:start;letter-spacing:0px;word-spacing:0px;writing-mode:lr-tb;text-anchor:start;fill:#000000;fill-opacity:1;stroke:none;stroke-width:0.26458332"
       aria-label="devpoint">
      <path
         d="m 91.408247,83.601908 v -0.645583 h -1.04775 v -1.830917 h -0.709083 v 1.830917 h -0.6985 v 0.645583 h 0.6985 v 4.011083 h 0.709083 v -4.011083 z m -7.551044,4.011083 h 0.709083 v -2.4765 c 0,-1.04775 0.582083,-1.576916 1.524,-1.55575 0.772583,0 1.195916,0.455084 1.195916,1.375834 v 2.656416 h 0.709084 v -2.656416 c 0,-1.481667 -0.5715,-2.074334 -1.905,-2.074334 -0.635,0 -1.153583,0.232834 -1.524,0.635 v -0.560916 h -0.709083 z m -1.871596,-5.598583 c 0.264584,0 0.497417,-0.22225 0.497417,-0.508 0,-0.254 -0.232833,-0.486833 -0.497417,-0.486833 -0.28575,0 -0.508,0.232833 -0.508,0.486833 0,0.28575 0.22225,0.508 0.508,0.508 z m -0.359833,5.598583 h 0.740833 v -4.656666 h -0.740833 z m -3.560135,0.116417 c 1.322917,0 2.413,-1.132417 2.413,-2.434167 0,-1.322916 -1.090083,-2.413 -2.413,-2.413 -1.322916,0 -2.413,1.090084 -2.413,2.413 0,1.30175 1.090084,2.434167 2.413,2.434167 z m 0,-4.148667 c 0.941917,0 1.672167,0.772584 1.672167,1.7145 0,0.92075 -0.73025,1.735667 -1.672167,1.735667 -0.941916,0 -1.672166,-0.814917 -1.672166,-1.735667 0,-0.941916 0.73025,-1.7145 1.672166,-1.7145 z m -5.511601,-0.6985 c -0.709084,0 -1.3335,0.328084 -1.756834,0.836084 v -0.762 h -0.709083 v 6.773333 h 0.709083 v -2.8575 c 0.423334,0.518583 1.04775,0.85725 1.756834,0.85725 1.322916,0 2.413,-1.132417 2.413,-2.434167 0,-1.322916 -1.090084,-2.413 -2.413,-2.413 z m 0.02117,4.148667 c -0.92075,0 -1.735666,-0.814917 -1.735666,-1.735667 0,-0.941916 0.814916,-1.7145 1.735666,-1.7145 0.941917,0 1.651,0.772584 1.651,1.7145 0,0.92075 -0.709083,1.735667 -1.651,1.735667 z m -5.876564,0.582083 h 0.772583 l 1.915583,-4.656666 h -0.772583 l -1.524,3.71475 -1.534583,-3.71475 h -0.772583 z m -2.343051,-2.31775 c 0,-1.322916 -1.090083,-2.413 -2.413,-2.413 -1.322916,0 -2.413,1.090084 -2.413,2.413 0,1.30175 1.090084,2.434167 2.413,2.434167 0.941917,0 1.778,-0.53975 2.169584,-1.344083 H 63.23376 c -0.296333,0.381 -0.751417,0.645583 -1.291167,0.645583 -0.8255,0 -1.49225,-0.635 -1.640416,-1.407583 h 4.053416 z m -2.413,-1.7145 c 0.814917,0 1.481667,0.592667 1.640417,1.36525 h -3.280833 c 0.15875,-0.772583 0.814916,-1.36525 1.640416,-1.36525 z m -4.184715,4.03225 h 0.709083 v -7.556499 h -0.709083 v 3.661833 c -0.423334,-0.508 -1.04775,-0.836084 -1.756834,-0.836084 -1.322916,0 -2.413,1.090084 -2.413,2.413 0,1.30175 1.090084,2.434167 2.413,2.434167 0.709084,0 1.3335,-0.338667 1.756834,-0.85725 z m -1.778,-0.582083 c -0.941917,0 -1.651,-0.814917 -1.651,-1.735667 0,-0.941916 0.709083,-1.7145 1.651,-1.7145 0.92075,0 1.735666,0.772584 1.735666,1.7145 0,0.92075 -0.814916,1.735667 -1.735666,1.735667 z"
         style="font-style:normal;font-variant:normal;font-weight:normal;font-stretch:normal;font-size:10.58333302px;font-family:Arcon;-inkscape-font-specification:'Arcon, Normal';font-variant-ligatures:normal;font-variant-caps:normal;font-variant-numeric:normal;font-feature-settings:normal;text-align:start;writing-mode:lr-tb;text-anchor:start;fill:#000000;stroke-width:0.26458332"
         id="path56" />
    </g>
    <circle
       r="0.54570663"
       cy="85.297516"
       cx="78.056747"
       id="path16"
       style="fill:#000000;stroke-width:0.15279785" />
  </g>
</svg>
