<svg xmlns="http://www.w3.org/2000/svg" id="svg57" width="246.3" height="79.199997">
  <g id="Layer_2" transform="translate(-4.4 -29.2)">
    <g id="XMLID_20_">
      <g id="XMLID_5_">
        <path id="XMLID_24_" d="M43.5 96.8h-.2c-15.7 0-28.4-12.7-28.4-28.4C14.9 52.8 27.6 40 43.3 40h.2V29.2h-4.7c-1.5 0-2.7 1.2-2.7 2.7l-.4 2c-1 .2-2 .5-3 .8l-1.3-1.5c-.7-1.3-2.4-1.8-3.7-1l-7.6 4.3c-1.3.7-1.8 2.4-1 3.7l.8 1.8c-.9.8-1.7 1.6-2.5 2.5l-1.8-.7c-1.3-.8-3-.3-3.8 1l-4.4 7.6c-.8 1.3-.3 3 1 3.8l1.6 1.2c-.4 1.2-.7 2.4-1 3.7l-1.9.3c-1.5 0-2.7 1.2-2.7 2.7V73c0 1.5 1.2 2.7 2.7 2.7l2 .2c.2 1 .4 1.9.7 2.8L8.2 80c-1.3.7-1.8 2.4-1 3.7l4.3 7.6c.7 1.3 2.4 1.8 3.7 1l2-.8c.7.8 1.5 1.6 2.3 2.4l-.8 2.1c-.8 1.3-.3 3 1 3.8l7.6 4.4c1.3.8 3 .3 3.8-1l1.4-1.8c1.1.4 2.2.7 3.3.9l.4 2.4c0 1.5 1.2 2.7 2.7 2.7h4.7V96.8z" fill="#1fb18a"/>
        <path id="XMLID_27_" d="M43.5 88.6h-.3c-11 0-19.9-9.1-19.9-20.2 0-11.2 8.9-20.2 19.9-20.2h.3v-2.3h-.3C31 45.9 21.1 56 21.1 68.4S31 90.9 43.3 90.9h.3v-2.3z" fill="#4f5c68"/>
        <path id="XMLID_31_" d="M43.5 75c-3.8 0-6.8-3-6.8-6.7s3-6.7 6.7-6.7h.1V54h-.1c-7.8 0-14.1 6.3-14.1 14.1s6.3 14.1 14.1 14.1h.1z" fill="#b9c4c7"/>
      </g>
      <g id="XMLID_21_">
        <path id="XMLID_260_" class="st3" d="M51.9 41.8h7v1.6H50V30h8.5v1.6h-6.7v4.1h6.3v1.6h-6.3v4.5z" fill="#212f3f"/>
        <path id="XMLID_257_" class="st3" d="M61.3 43.4V46h-1.7v-4.3h1.8L65.9 30h1.8l4.4 11.8H74v4.3h-1.7v-2.6h-11zm2-1.6h6.9L66.8 32z" fill="#212f3f"/>
        <path id="XMLID_255_" class="st3" d="M77.5 40.8L84.8 30H87v13.4h-1.8V32.5l-7.3 10.9h-2.2V30h1.8z" fill="#212f3f"/>
        <path id="XMLID_253_" class="st3" d="M90.4 30h1.8v5.6H99V30h1.8v13.4H99v-6.2h-6.8v6.2h-1.8z" fill="#212f3f"/>
        <path id="XMLID_250_" class="st3" d="M117.7 36.7c0 1-.2 2-.5 2.9-.4.9-.8 1.6-1.5 2.2-.6.6-1.4 1.1-2.3 1.5-.9.3-1.8.5-2.8.5-1 0-2-.2-2.8-.5-.9-.3-1.6-.8-2.3-1.5-.6-.6-1.1-1.4-1.5-2.2-.4-.9-.5-1.8-.5-2.9 0-1 .2-2 .5-2.8.4-.9.8-1.6 1.5-2.2.6-.6 1.4-1.1 2.3-1.5.9-.3 1.8-.5 2.8-.5 1 0 2 .2 2.8.5.9.3 1.6.8 2.3 1.5.6.6 1.1 1.4 1.5 2.2.3.8.5 1.7.5 2.8zm-1.9 0c0-.7-.1-1.4-.4-2.1-.2-.7-.6-1.2-1-1.7s-1-.9-1.6-1.2c-.6-.3-1.3-.4-2.1-.4s-1.5.1-2.1.4c-.6.3-1.2.7-1.6 1.2-.4.5-.8 1.1-1 1.7-.2.7-.4 1.3-.4 2.1 0 .7.1 1.4.4 2.1.2.7.6 1.2 1 1.7s1 .9 1.6 1.2c.6.3 1.3.4 2.1.4s1.5-.1 2.1-.4c.6-.3 1.2-.7 1.6-1.2.4-.5.8-1.1 1-1.7.2-.7.4-1.4.4-2.1z" fill="#212f3f"/>
        <path id="XMLID_248_" class="st3" d="M122.2 41.8h7v1.6h-8.8V30h8.5v1.6h-6.7v4.1h6.3v1.6h-6.3z" fill="#212f3f"/>
        <path id="XMLID_246_" class="st3" d="M51.9 62.1l7.3-10.8h2.2v13.4h-1.8V53.9l-7.3 10.9H50V51.3h1.8z" fill="#212f3f"/>
        <path id="XMLID_244_" class="st3" d="M64.8 51.3h1.8V57h6.8v-5.6h1.8v13.4h-1.8v-6.2h-6.8v6.2h-1.8z" fill="#212f3f"/>
        <path id="XMLID_240_" class="st3" d="M86.1 51.8c.9.1 1.8.3 2.6.6s1.5.8 2 1.3c.6.5 1 1.2 1.3 1.9.3.7.5 1.5.5 2.4 0 .9-.2 1.7-.5 2.4s-.8 1.4-1.3 1.9c-.6.5-1.2 1-2 1.3-.8.3-1.6.5-2.6.6v1.5h-1.8v-1.5c-.9-.1-1.8-.3-2.6-.6s-1.5-.8-2-1.3c-.6-.5-1-1.2-1.3-1.9-.3-.7-.5-1.5-.5-2.4 0-.9.2-1.7.5-2.4s.8-1.4 1.3-1.9c.6-.5 1.2-1 2-1.3.8-.3 1.7-.5 2.6-.6v-1.4h1.8zm-6.3 6.3c0 .6.1 1.2.3 1.7.2.5.5 1 .9 1.4.4.4.8.7 1.4 1 .6.3 1.2.4 1.9.5v-9.2c-.7.1-1.3.2-1.9.5-.6.3-1 .6-1.4 1-.4.4-.7.9-.9 1.4-.2.5-.3 1.1-.3 1.7zm10.7 0c0-.6-.1-1.2-.3-1.7-.2-.5-.5-1-.9-1.4-.4-.4-.8-.7-1.4-1-.5-.3-1.2-.4-1.9-.5v9.2c.7-.1 1.3-.2 1.9-.5.5-.3 1-.6 1.4-1 .4-.4.7-.9.9-1.4.2-.6.3-1.1.3-1.7z" fill="#212f3f"/>
        <path id="XMLID_237_" class="st3" d="M108.6 58c0 1-.2 2-.5 2.9-.4.9-.8 1.6-1.5 2.2-.6.6-1.4 1.1-2.3 1.5-.9.3-1.8.5-2.8.5-1 0-2-.2-2.8-.5-.9-.3-1.6-.8-2.3-1.5-.6-.6-1.1-1.4-1.5-2.2-.4-.9-.5-1.8-.5-2.9 0-1 .2-2 .5-2.8.4-.9.8-1.6 1.5-2.2.6-.6 1.4-1.1 2.3-1.5.9-.3 1.8-.5 2.8-.5 1 0 2 .2 2.8.5.9.3 1.6.8 2.3 1.5.6.6 1.1 1.4 1.5 2.2.3.8.5 1.8.5 2.8zm-2 0c0-.7-.1-1.4-.4-2.1-.2-.7-.6-1.2-1-1.7s-1-.9-1.6-1.2c-.6-.3-1.3-.4-2.1-.4s-1.5.1-2.1.4c-.6.3-1.2.7-1.6 1.2-.4.5-.8 1.1-1 1.7-.2.7-.4 1.3-.4 2.1 0 .7.1 1.4.4 2.1.2.7.6 1.2 1 1.7s1 .9 1.6 1.2c.6.3 1.3.4 2.1.4s1.5-.1 2.1-.4c.6-.3 1.2-.7 1.6-1.2.4-.5.8-1.1 1-1.7.3-.6.4-1.3.4-2.1z" fill="#212f3f"/>
        <path id="XMLID_234_" class="st3" d="M111.2 51.3h4.1c.7 0 1.3.1 1.9.2.6.1 1.1.4 1.5.7.4.3.7.7 1 1.2.2.5.3 1 .3 1.7 0 .6-.1 1.2-.4 1.7-.2.5-.6.9-1 1.2-.4.3-.9.5-1.5.7-.6.2-1.2.2-1.9.2H113v5.9h-1.8zm1.9 6h2.1c1 0 1.7-.2 2.2-.6.5-.4.8-.9.8-1.7 0-.8-.3-1.4-.8-1.7-.5-.3-1.3-.5-2.2-.5h-2.1z" fill="#212f3f"/>
        <path id="XMLID_232_" class="st3" d="M129.4 61.8l4.1-10.5h2.8v13.4h-1.8V53.6h-.1L130 64.8h-1.1l-4.5-11.1h-.1v11.1h-1.8V51.3h2.7z" fill="#212f3f"/>
        <path id="XMLID_229_" class="st3" d="M140.1 64.8h-2l5.8-13.4h1.8l5.7 13.4h-2.1l-1.4-3.3h-6.5zm2-4.9h5.3l-2.6-6.5z" fill="#212f3f"/>
        <path id="XMLID_227_" class="st3" d="M153.1 64.8V51.3h1.8v11.8h6.5V51.3h1.8v11.8h1.6v4.3h-1.7v-2.6z" fill="#212f3f"/>
        <path id="XMLID_225_" class="st3" d="M169 62.1l7.3-10.8h2.2v13.4h-1.8V53.9l-7.3 10.9h-2.2V51.3h1.8z" fill="#212f3f"/>
        <path id="XMLID_222_" class="st3" d="M195.3 58c0 1-.2 2-.5 2.9-.4.9-.8 1.6-1.5 2.2-.6.6-1.4 1.1-2.3 1.5-.9.3-1.8.5-2.8.5-1 0-2-.2-2.8-.5-.9-.3-1.6-.8-2.3-1.5-.6-.6-1.1-1.4-1.5-2.2-.4-.9-.5-1.8-.5-2.9 0-1 .2-2 .5-2.8.4-.9.8-1.6 1.5-2.2.6-.6 1.4-1.1 2.3-1.5.9-.3 1.8-.5 2.8-.5 1 0 2 .2 2.8.5.9.3 1.6.8 2.3 1.5.6.6 1.1 1.4 1.5 2.2.3.8.5 1.8.5 2.8zm-1.9 0c0-.7-.1-1.4-.4-2.1-.2-.7-.6-1.2-1-1.7s-1-.9-1.6-1.2c-.6-.3-1.3-.4-2.1-.4s-1.5.1-2.1.4c-.6.3-1.2.7-1.6 1.2-.4.5-.8 1.1-1 1.7-.2.7-.4 1.3-.4 2.1 0 .7.1 1.4.4 2.1.2.7.6 1.2 1 1.7s1 .9 1.6 1.2c.6.3 1.3.4 2.1.4s1.5-.1 2.1-.4c.6-.3 1.2-.7 1.6-1.2.4-.5.8-1.1 1-1.7.2-.6.4-1.3.4-2.1z" fill="#212f3f"/>
        <path id="XMLID_220_" class="st3" d="M198 51.3h1.8V57h6.8v-5.6h1.8v13.4h-1.8v-6.2h-6.8v6.2H198z" fill="#212f3f"/>
        <path id="XMLID_218_" class="st3" d="M211.9 51.3h1.8V57h6.8v-5.6h1.8v13.4h-1.8v-6.2h-6.8v6.2h-1.8z" fill="#212f3f"/>
        <path id="XMLID_215_" class="st3" d="M239.2 58c0 1-.2 2-.5 2.9-.4.9-.8 1.6-1.5 2.2-.6.6-1.4 1.1-2.3 1.5-.9.3-1.8.5-2.8.5-1 0-2-.2-2.8-.5-.9-.3-1.6-.8-2.3-1.5-.6-.6-1.1-1.4-1.5-2.2-.4-.9-.5-1.8-.5-2.9 0-1 .2-2 .5-2.8.4-.9.8-1.6 1.5-2.2.6-.6 1.4-1.1 2.3-1.5.9-.3 1.8-.5 2.8-.5 1 0 2 .2 2.8.5.9.3 1.6.8 2.3 1.5.6.6 1.1 1.4 1.5 2.2.3.8.5 1.8.5 2.8zm-2 0c0-.7-.1-1.4-.4-2.1-.2-.7-.6-1.2-1-1.7s-1-.9-1.6-1.2c-.6-.3-1.3-.4-2.1-.4s-1.5.1-2.1.4c-.6.3-1.2.7-1.6 1.2-.4.5-.8 1.1-1 1.7-.2.7-.4 1.3-.4 2.1 0 .7.1 1.4.4 2.1.2.7.6 1.2 1 1.7s1 .9 1.6 1.2c.6.3 1.3.4 2.1.4s1.5-.1 2.1-.4c.6-.3 1.2-.7 1.6-1.2.4-.5.8-1.1 1-1.7.3-.6.4-1.3.4-2.1z" fill="#212f3f"/>
        <path id="XMLID_213_" class="st3" d="M243.7 63.2h7v1.6h-8.8V51.3h8.5v1.6h-6.7V57h6.3v1.6h-6.3z" fill="#212f3f"/>
        <path id="XMLID_211_" class="st3" d="M60.1 72.7v13.4h-1.8V74.3h-6.5v11.8H50V72.7z" fill="#212f3f"/>
        <path id="XMLID_208_" class="st3" d="M63.5 72.7h4.1c.7 0 1.3.1 1.9.2.6.1 1.1.4 1.5.7.4.3.7.7 1 1.2.2.5.3 1 .3 1.7 0 .6-.1 1.2-.4 1.7-.2.5-.6.9-1 1.2-.4.3-.9.5-1.5.7-.6.2-1.2.2-1.9.2h-2.2v5.9h-1.8zm1.8 6h2.1c1 0 1.7-.2 2.2-.6.5-.4.8-.9.8-1.7 0-.8-.3-1.4-.8-1.7-.5-.3-1.3-.5-2.2-.5h-2.1z" fill="#212f3f"/>
        <path id="XMLID_205_" class="st3" d="M88.3 79.4c0 1-.2 2-.5 2.9-.4.9-.8 1.6-1.5 2.2-.6.6-1.4 1.1-2.3 1.5-.9.3-1.8.5-2.8.5-1 0-2-.2-2.8-.5-.9-.3-1.6-.8-2.3-1.5-.6-.6-1.1-1.4-1.5-2.2-.4-.9-.5-1.8-.5-2.9 0-1 .2-2 .5-2.8.4-.9.8-1.6 1.5-2.2.6-.6 1.4-1.1 2.3-1.5.9-.3 1.8-.5 2.8-.5 1 0 2 .2 2.8.5.9.3 1.6.8 2.3 1.5.6.6 1.1 1.4 1.5 2.2.3.8.5 1.8.5 2.8zm-2 0c0-.7-.1-1.4-.4-2.1-.2-.7-.6-1.2-1-1.7s-1-.9-1.6-1.2c-.6-.3-1.3-.4-2.1-.4s-1.5.1-2.1.4c-.6.3-1.2.7-1.6 1.2-.4.5-.8 1.1-1 1.7-.2.7-.4 1.3-.4 2.1 0 .7.1 1.4.4 2.1.2.7.6 1.2 1 1.7s1 .9 1.6 1.2c.6.3 1.3.4 2.1.4s1.5-.1 2.1-.4c.6-.3 1.2-.7 1.6-1.2.4-.5.8-1.1 1-1.7.3-.6.4-1.3.4-2.1z" fill="#212f3f"/>
        <path id="XMLID_203_" class="st3" d="M102.4 84.1c-.2.3-.5.7-.9.9-.3.3-.7.5-1.1.8-.4.2-.9.4-1.4.5-.5.1-1.1.2-1.7.2-1 0-2-.2-2.8-.5-.9-.3-1.6-.8-2.2-1.5-.6-.6-1.1-1.4-1.5-2.2-.4-.9-.5-1.8-.5-2.8 0-1 .2-2 .5-2.8.4-.9.9-1.6 1.5-2.2.6-.6 1.4-1.1 2.2-1.5.9-.3 1.8-.5 2.8-.5.5 0 1 0 1.4.1.5.1.9.2 1.3.4s.8.4 1.2.7c.4.3.7.6.9.9l-1.4 1.2c-.3-.4-.7-.8-1.3-1.1-.6-.3-1.3-.5-2.1-.5s-1.5.1-2.1.4c-.6.3-1.2.7-1.6 1.2-.4.5-.8 1.1-1 1.7-.2.7-.4 1.4-.4 2.1 0 .7.1 1.4.4 2.1.2.7.6 1.2 1 1.7s1 .9 1.6 1.2c.6.3 1.3.4 2.1.4.7 0 1.4-.1 2.1-.4.6-.3 1.2-.8 1.6-1.4z" fill="#212f3f"/>
        <path id="XMLID_201_" class="st3" d="M109.2 86.2h-1.8V74.3H103v-1.6h10.5v1.6h-4.3z" fill="#212f3f"/>
        <path id="XMLID_198_" class="st3" d="M115.4 72.7h4.1c.7 0 1.3.1 1.9.2.6.1 1.1.4 1.5.7.4.3.7.7 1 1.2.2.5.3 1 .3 1.7 0 .6-.1 1.2-.4 1.7-.2.5-.6.9-1 1.2-.4.3-.9.5-1.5.7-.6.2-1.2.2-1.9.2h-2.2v5.9h-1.8zm1.8 6h2.1c1 0 1.7-.2 2.2-.6.5-.4.8-.9.8-1.7 0-.8-.3-1.4-.8-1.7-.5-.3-1.3-.5-2.2-.5h-2.1z" fill="#212f3f"/>
        <path id="XMLID_195_" class="st3" d="M127.1 86.2h-2l5.8-13.4h1.8l5.7 13.4h-2.1l-1.4-3.3h-6.5zm2-5h5.3l-2.6-6.5z" fill="#212f3f"/>
        <path id="XMLID_193_" class="st3" d="M140.1 72.7h1.8v5.6h6.8v-5.6h1.8v13.4h-1.8V80H142v6.2h-1.8V72.7z" fill="#212f3f"/>
        <path id="XMLID_191_" class="st3" d="M165.5 84.1c-.2.3-.5.7-.9.9-.3.3-.7.5-1.1.8-.4.2-.9.4-1.4.5-.5.1-1.1.2-1.7.2-1 0-2-.2-2.8-.5-.9-.3-1.6-.8-2.2-1.5-.6-.6-1.1-1.4-1.5-2.2-.4-.9-.5-1.8-.5-2.8 0-1 .2-2 .5-2.8.4-.9.9-1.6 1.5-2.2.6-.6 1.4-1.1 2.2-1.5.9-.3 1.8-.5 2.8-.5.5 0 1 0 1.4.1.5.1.9.2 1.3.4s.8.4 1.2.7c.4.3.7.6.9.9l-1.4 1.2c-.3-.4-.7-.8-1.3-1.1-.6-.3-1.3-.5-2.1-.5s-1.5.1-2.1.4c-.6.3-1.2.7-1.6 1.2-.4.5-.8 1.1-1 1.7-.2.7-.4 1.4-.4 2.1 0 .7.1 1.4.4 2.1.2.7.6 1.2 1 1.7s1 .9 1.6 1.2c.6.3 1.3.4 2.1.4.7 0 1.4-.1 2.1-.4.6-.3 1.2-.8 1.6-1.4z" fill="#212f3f"/>
        <path id="XMLID_189_" class="st3" d="M172.2 86.2h-1.8V74.3h-4.3v-1.6h10.5v1.6h-4.3v11.9z" fill="#212f3f"/>
        <path id="XMLID_185_" class="st3" d="M178.5 72.7h4.3c.5 0 1 .1 1.5.2s1 .3 1.4.6c.4.3.8.6 1 1.1.3.4.4 1 .4 1.7s-.2 1.3-.6 1.9c-.4.5-1 .9-1.7 1l1.2.3c.4.2.7.4.9.7.3.3.5.6.6 1 .2.4.2.8.2 1.3 0 .6-.1 1.1-.4 1.6-.2.5-.6.9-1 1.2-.4.3-1 .6-1.6.7-.6.2-1.3.2-2 .2h-4.3V72.7zm1.8 5.8h2.5c.3 0 .6 0 .9-.1.3-.1.6-.2.8-.4.2-.2.4-.4.6-.7.2-.3.2-.6.2-1s-.1-.7-.2-1c-.1-.3-.4-.5-.6-.6-.3-.2-.6-.3-.9-.4-.4-.1-.7-.1-1.2-.1h-2.2v4.3zm0 6.1h2.4c.4 0 .8 0 1.2-.1.4-.1.8-.2 1.1-.4.3-.2.6-.4.7-.7.2-.3.3-.7.3-1.1 0-.8-.3-1.4-.8-1.8-.6-.4-1.3-.6-2.3-.6h-2.5v4.7z" fill="#212f3f"/>
        <path id="XMLID_182_" class="st3" d="M204.1 79.4c0 1-.2 2-.5 2.9-.4.9-.8 1.6-1.5 2.2-.6.6-1.4 1.1-2.3 1.5-.9.3-1.8.5-2.8.5-1 0-2-.2-2.8-.5-.9-.3-1.6-.8-2.3-1.5-.6-.6-1.1-1.4-1.5-2.2-.4-.9-.5-1.8-.5-2.9 0-1 .2-2 .5-2.8.4-.9.8-1.6 1.5-2.2.6-.6 1.4-1.1 2.3-1.5.9-.3 1.8-.5 2.8-.5 1 0 2 .2 2.8.5.9.3 1.6.8 2.3 1.5.6.6 1.1 1.4 1.5 2.2.4.8.5 1.8.5 2.8zm-1.9 0c0-.7-.1-1.4-.4-2.1-.2-.7-.6-1.2-1-1.7s-1-.9-1.6-1.2c-.6-.3-1.3-.4-2.1-.4s-1.5.1-2.1.4c-.6.3-1.2.7-1.6 1.2-.4.5-.8 1.1-1 1.7-.2.7-.4 1.3-.4 2.1 0 .7.1 1.4.4 2.1.2.7.6 1.2 1 1.7s1 .9 1.6 1.2c.6.3 1.3.4 2.1.4s1.5-.1 2.1-.4c.6-.3 1.2-.7 1.6-1.2.4-.5.8-1.1 1-1.7.3-.6.4-1.3.4-2.1z" fill="#212f3f"/>
        <path id="XMLID_178_" class="st3" d="M50 94.1h4.3c.5 0 1 .1 1.5.2s1 .3 1.4.6c.4.3.8.6 1 1.1.3.4.4 1 .4 1.7s-.2 1.3-.6 1.9c-.4.5-1 .9-1.7 1l1.2.3c.4.2.7.4.9.7.3.3.5.6.6 1 .2.4.2.8.2 1.3 0 .6-.1 1.1-.4 1.6-.2.5-.6.9-1 1.2-.4.3-1 .6-1.6.7-.6.2-1.3.2-2 .2H50zm1.9 5.7h2.5c.3 0 .6 0 .9-.1.3-.1.6-.2.8-.4.2-.2.4-.4.6-.7.2-.3.2-.6.2-1s-.1-.7-.2-1c-.1-.3-.4-.5-.6-.6-.3-.2-.6-.3-.9-.4-.4-.1-.7-.1-1.2-.1h-2.2v4.3zm0 6.2h2.4c.4 0 .8 0 1.2-.1.4-.1.8-.2 1.1-.4.3-.2.6-.4.7-.7.2-.3.3-.7.3-1.1 0-.8-.3-1.4-.8-1.8-.6-.4-1.3-.6-2.3-.6H52v4.7z" fill="#212f3f"/>
        <path id="XMLID_176_" class="st3" d="M78.4 105.4c-.2.3-.5.7-.9.9-.3.3-.7.5-1.1.8-.4.2-.9.4-1.4.5-.5.1-1.1.2-1.7.2-1 0-2-.2-2.8-.5-.9-.3-1.6-.8-2.2-1.5-.6-.6-1.1-1.4-1.5-2.2-.4-.9-.5-1.8-.5-2.8 0-1 .2-2 .5-2.8.4-.9.9-1.6 1.5-2.2.6-.6 1.4-1.1 2.2-1.5.9-.3 1.8-.5 2.8-.5.5 0 1 0 1.4.1.5.1.9.2 1.3.4s.8.4 1.2.7c.4.3.7.6.9.9L76.8 97c-.3-.4-.7-.8-1.3-1.1-.6-.3-1.3-.5-2.1-.5s-1.5.1-2.1.4c-.6.3-1.2.7-1.6 1.2-.4.5-.8 1.1-1 1.7-.2.7-.4 1.4-.4 2.1 0 .7.1 1.4.4 2.1.2.7.6 1.2 1 1.7s1 .9 1.6 1.2c.6.3 1.3.4 2.1.4.7 0 1.4-.1 2.1-.4.6-.3 1.2-.8 1.6-1.4z" fill="#212f3f"/>
        <path id="XMLID_172_" class="st3" d="M88 94.5c.9.1 1.8.3 2.6.6s1.5.8 2 1.3c.6.5 1 1.2 1.3 1.9.3.7.5 1.5.5 2.4 0 .9-.2 1.7-.5 2.4s-.8 1.4-1.3 1.9c-.6.5-1.2 1-2 1.3-.8.3-1.6.5-2.6.6v1.5h-1.8v-1.5c-.9-.1-1.8-.3-2.6-.6s-1.5-.8-2-1.3c-.6-.5-1-1.2-1.3-1.9-.3-.7-.5-1.5-.5-2.4 0-.9.2-1.7.5-2.4s.8-1.4 1.3-1.9c.6-.5 1.2-1 2-1.3.8-.3 1.7-.5 2.6-.6v-1.4H88zm-6.3 6.3c0 .6.1 1.2.3 1.7.2.5.5 1 .9 1.4.4.4.8.7 1.4 1 .6.3 1.2.4 1.9.5v-9.2c-.7.1-1.3.2-1.9.5-.6.3-1 .6-1.4 1-.4.4-.7.9-.9 1.4-.2.5-.3 1.1-.3 1.7zm10.8 0c0-.6-.1-1.2-.3-1.7-.2-.5-.5-1-.9-1.4-.4-.4-.8-.7-1.4-1-.5-.3-1.2-.4-1.9-.5v9.2c.7-.1 1.3-.2 1.9-.5.5-.3 1-.6 1.4-1 .4-.4.7-.9.9-1.4.2-.5.3-1.1.3-1.7z" fill="#212f3f"/>
        <path id="XMLID_170_" class="st3" d="M98.8 105.9h7v1.6H97V94.1h8.5v1.6h-6.7v4.1h6.3v1.6h-6.3z" fill="#212f3f"/>
        <path id="XMLID_167_" class="st3" d="M108.3 94.1h4.1c.7 0 1.3.1 1.9.2.6.1 1.1.4 1.5.7.4.3.7.7 1 1.2.2.5.3 1 .3 1.7 0 .6-.1 1.2-.4 1.7-.2.5-.6.9-1 1.2-.4.3-.9.5-1.5.7-.6.2-1.2.2-1.9.2h-2.2v5.9h-1.8zm1.9 6h2.1c1 0 1.7-.2 2.2-.6.5-.4.8-.9.8-1.7 0-.8-.3-1.4-.8-1.7-.5-.3-1.3-.5-2.2-.5h-2.1z" fill="#212f3f"/>
        <path id="XMLID_165_" class="st3" d="M121.5 105.9h7v1.6h-8.8V94.1h8.5v1.6h-6.7v4.1h6.3v1.6h-6.3z" fill="#212f3f"/>
        <path id="XMLID_163_" class="st3" d="M135.7 107.5V94.1h1.8v5.5h.9c.3 0 .6 0 .8.1l4.9-5.6h2l-5 6c1.5.5 2.6 1.4 3.5 2.6.8 1.2 1.4 2.8 1.7 4.8h-2c-.2-1.1-.5-2.1-.8-2.9-.3-.8-.8-1.5-1.3-2s-1.2-.9-2-1.1c-.8-.2-1.7-.3-2.7-.3v6.3z" fill="#212f3f"/>
        <path id="XMLID_161_" class="st3" d="M149.7 94.1l4 8.3 3.8-8.3h2.1l-5 10.5c-.2.5-.5.9-.7 1.3-.3.4-.5.7-.9 1-.3.3-.7.5-1.1.7-.4.2-.9.2-1.4.2-.6 0-1-.1-1.4-.2-.3-.1-.6-.3-.8-.4l1-1.4c.1.1.3.2.6.3.2.1.5.2.8.2.4 0 .8-.1 1.1-.4.3-.3.6-.7.9-1.3l-5-10.4h2z" fill="#212f3f"/>
        <path id="XMLID_159_" class="st3" d="M161.7 107.5h-2l5.7-13.4h1.8l5.7 13.4h-2l-4.6-11z" fill="#212f3f"/>
        <path id="XMLID_156_" class="st3" d="M174.3 94.1h1.8v5.3h2.1c.7 0 1.4.1 2 .3.6.2 1.1.4 1.5.8.4.3.8.8 1 1.2.2.5.4 1.1.4 1.7 0 .6-.1 1.2-.4 1.7-.2.5-.6.9-1 1.3-.4.3-.9.6-1.5.8-.6.2-1.2.3-2 .3h-3.9zm1.8 6.9v4.9h2.1c1 0 1.8-.2 2.3-.7.5-.5.7-1.1.7-1.8s-.3-1.3-.8-1.8c-.5-.4-1.2-.7-2.2-.7h-2.1z" fill="#212f3f"/>
        <path id="XMLID_154_" class="st3" d="M190.3 107.5h-1.8V95.7h-4.3v-1.6h10.5v1.6h-4.3v11.8z" fill="#212f3f"/>
        <path id="XMLID_152_" class="st3" d="M197.2 94.1l4 8.3 3.8-8.3h2.1l-5 10.5c-.2.5-.5.9-.7 1.3-.3.4-.5.7-.9 1-.3.3-.7.5-1.1.7-.4.2-.9.2-1.4.2-.6 0-1-.1-1.4-.2-.3-.1-.6-.3-.8-.4l1-1.4c.1.1.3.2.6.3.2.1.5.2.8.2.4 0 .8-.1 1.1-.4.3-.3.6-.7.9-1.3l-5-10.4h2z" fill="#212f3f"/>
        <path id="XMLID_149_" class="st3" d="M208.9 94.1h4.1c.7 0 1.3.1 1.9.2.6.1 1.1.4 1.5.7.4.3.7.7 1 1.2.2.5.3 1 .3 1.7 0 .6-.1 1.2-.4 1.7-.2.5-.6.9-1 1.2-.4.3-.9.5-1.5.7-.6.2-1.2.2-1.9.2h-2.2v5.9h-1.8zm1.8 6h2.1c1 0 1.7-.2 2.2-.6.5-.4.8-.9.8-1.7 0-.8-.3-1.4-.8-1.7-.5-.3-1.3-.5-2.2-.5h-2.1z" fill="#212f3f"/>
        <path id="XMLID_145_" class="st3" d="M222 94.1v5.3h2c.7 0 1.4.1 2 .3.6.2 1.1.5 1.5.8.4.4.8.8 1 1.3.2.5.4 1.1.4 1.7 0 .6-.1 1.2-.4 1.7-.2.5-.6.9-1 1.3-.4.3-.9.6-1.5.8-.6.2-1.2.3-2 .3h-3.8V94.1zm0 11.8h1.9c1 0 1.8-.2 2.2-.6.5-.4.7-1 .7-1.9 0-.7-.3-1.3-.8-1.8-.5-.4-1.2-.7-2.2-.7H222zm9.9-11.8v13.4H230V94.1z" fill="#212f3f"/>
      </g>
    </g>
  </g>
</svg>
